<svg width="24" height="21" viewBox="0 0 24 21" fill="none" xmlns="http://www.w3.org/2000/svg">
<g clip-path="url(#clip0_2265_4016)">
<path d="M7.32064 11.1216C7.47451 11.5038 7.71912 11.8428 8.03333 12.1094C8.45204 12.4497 8.95171 12.6758 9.48372 12.7658L19.6551 12.7345C20.1066 12.6769 20.5364 12.5071 20.9054 12.2407C21.3166 11.9417 21.6247 11.5222 21.7869 11.0403L23.2935 3.8947C23.3567 3.76968 23.3897 3.63158 23.3897 3.4915C23.3897 3.35142 23.3567 3.21328 23.2935 3.08826C23.1588 2.84599 22.9343 2.66638 22.6684 2.58813H5.50769C6.19537 6.95177 6.90178 10.1588 7.32064 11.1216Z" stroke="black" stroke-width="2" stroke-miterlimit="10"/>
<path d="M5.73276 5.27637C6.43294 9.8338 7.14562 13.1722 7.56448 14.1787C7.73012 14.5698 7.98234 14.9182 8.30217 15.1977C8.72029 15.5513 9.22539 15.7865 9.76507 15.8791C13.1785 15.8791 18.3367 15.8791 21.7501 15.8791" stroke="black" stroke-width="2" stroke-miterlimit="10"/>
<path d="M-3.05176e-05 0.625244H4.13858C4.37571 0.665942 4.59424 0.779591 4.76375 0.950341C4.95039 1.13872 5.06535 1.38637 5.0888 1.65052L5.71397 5.25768" stroke="black" stroke-width="2" stroke-miterlimit="10"/>
<path d="M9.06487 20.3803C10.0178 20.3803 10.7903 19.6078 10.7903 18.6549C10.7903 17.702 10.0178 16.9294 9.06487 16.9294C8.11193 16.9294 7.33942 17.702 7.33942 18.6549C7.33942 19.6078 8.11193 20.3803 9.06487 20.3803Z" fill="black"/>
<path d="M19.33 20.3803C20.283 20.3803 21.0555 19.6078 21.0555 18.6549C21.0555 17.702 20.283 16.9294 19.33 16.9294C18.3771 16.9294 17.6046 17.702 17.6046 18.6549C17.6046 19.6078 18.3771 20.3803 19.33 20.3803Z" fill="black"/>
</g>
<defs>
<clipPath id="clip0_2265_4016">
<rect width="24" height="20.3803" fill="white"/>
</clipPath>
</defs>
</svg>
