<svg width="24" height="24" viewBox="0 0 24 24" fill="none" xmlns="http://www.w3.org/2000/svg">
<path d="M23.5439 8.99034L23.4525 8.92939H23.5073L17.6976 4.24135L12.8876 0.35192C12.6065 0.124246 12.2557 0 11.8939 0C11.5322 0 11.1814 0.124246 10.9002 0.35192L6.09026 4.24135L0.426828 8.92939C-0.438844 9.53902 0.115931 10.9412 1.16449 10.9412C1.41883 10.9406 1.66508 11.0303 1.85936 11.1945C2.05365 11.3586 2.18333 11.5864 2.22524 11.8373L3.30425 22.201C3.34469 22.4519 3.47293 22.6804 3.66607 22.8456C3.85922 23.0108 4.10476 23.1021 4.35894 23.1032H8.47393C8.67392 23.1016 8.86526 23.0215 9.00668 22.8801C9.1481 22.7386 9.22826 22.5473 9.22986 22.3473V17.7385C9.22986 15.9645 10.059 14.5258 11.833 14.5258C13.607 14.5258 14.4544 15.9645 14.4544 17.7385V22.3168C14.4544 22.5254 14.5372 22.7254 14.6847 22.8729C14.8322 23.0204 15.0322 23.1032 15.2408 23.1032H19.1729C19.4278 23.1024 19.6741 23.0113 19.8683 22.8461C20.0624 22.681 20.1919 22.4524 20.2336 22.201L21.3127 11.8373C21.3521 11.5864 21.4802 11.358 21.6737 11.1935C21.8673 11.0291 22.1134 10.9395 22.3673 10.9412H22.9343C23.1617 10.9396 23.3827 10.8659 23.5655 10.7306C23.7483 10.5952 23.8833 10.4053 23.9512 10.1883C24.019 9.97121 24.0161 9.73818 23.9429 9.52287C23.8697 9.30756 23.73 9.12109 23.5439 8.99034Z" fill="#E24E4D"/>
</svg>
