<svg width="24" height="24" viewBox="0 0 24 24" fill="none" xmlns="http://www.w3.org/2000/svg">
<path d="M13.5573 0.101496C11.072 -0.223799 8.54716 0.237328 6.33726 1.42016C4.12735 2.60298 2.3433 4.44814 1.23553 6.69661C0.127763 8.94508 -0.24811 11.484 0.160661 13.957C0.569432 16.43 1.74232 18.7129 3.51472 20.4853C5.28712 22.2577 7.57004 23.4306 10.043 23.8394C12.516 24.2481 15.0549 23.8722 17.3034 22.7645C19.5519 21.6567 21.397 19.8727 22.5798 17.6628C23.7627 15.4529 24.2238 12.928 23.8985 10.4427C23.5553 7.82034 22.3554 5.38484 20.4853 3.51475C18.6152 1.64466 16.1797 0.444722 13.5573 0.101496ZM14.6373 15.1156L6.9291 17.7485C6.83098 17.7788 6.7265 17.7817 6.62686 17.7569C6.52723 17.7322 6.43622 17.6808 6.36362 17.6082C6.29103 17.5356 6.23959 17.4446 6.21486 17.3449C6.19012 17.2453 6.193 17.1408 6.22321 17.0427L8.2844 9.65917C8.33356 9.48459 8.42305 9.32398 8.54566 9.19033C8.66827 9.05668 8.82057 8.95372 8.99028 8.88974L17.6585 5.93915C17.7357 5.9126 17.8188 5.90852 17.8982 5.92739C17.9776 5.94627 18.05 5.98734 18.1069 6.04579C18.1639 6.10423 18.2031 6.17765 18.2199 6.2575C18.2368 6.33735 18.2306 6.42032 18.202 6.49679L15.2797 14.4733C15.2283 14.6221 15.1438 14.7572 15.0325 14.8685C14.9213 14.9798 14.7861 15.0643 14.6373 15.1156Z" fill="#E24E4D"/>
<path d="M12.2096 12.7824C12.7319 12.7824 13.1554 12.3589 13.1554 11.8365C13.1554 11.3141 12.7319 10.8906 12.2096 10.8906C11.6872 10.8906 11.2637 11.3141 11.2637 11.8365C11.2637 12.3589 11.6872 12.7824 12.2096 12.7824Z" fill="#E24E4D"/>
</svg>
