<svg width="24" height="23" viewBox="0 0 24 23" fill="none" xmlns="http://www.w3.org/2000/svg">
<path d="M19.9205 0H3.56828C2.59363 0.0293615 1.6705 0.444449 1.00172 1.15405C0.332931 1.86365 -0.0267974 2.80972 0.00155769 3.7844V15.0674C-0.0267974 16.0421 0.332931 16.9881 1.00172 17.6977C1.6705 18.4073 2.59363 18.8224 3.56828 18.8517H4.1089C4.37586 18.8544 4.63655 18.9331 4.86038 19.0786C5.08422 19.224 5.26194 19.4303 5.37272 19.6732L6.5663 22.2079C6.68129 22.4453 6.86082 22.6455 7.08434 22.7856C7.30785 22.9257 7.56632 23 7.83012 23C8.09391 23 8.35236 22.9257 8.57588 22.7856C8.79939 22.6455 8.97893 22.4453 9.09391 22.2079L10.2875 19.6732C10.3983 19.4303 10.576 19.224 10.7999 19.0786C11.0237 18.9331 11.2844 18.8544 11.5513 18.8517H19.9205C20.8958 18.8224 21.8196 18.4075 22.4895 17.6982C23.1594 16.9888 23.5207 16.0427 23.4943 15.0674V3.77737C23.5188 2.80323 23.1567 1.85899 22.487 1.15113C21.8173 0.443275 20.8945 0.0293879 19.9205 0ZM5.45697 11.3672C5.19174 11.3672 4.93247 11.2886 4.71194 11.1412C4.49141 10.9939 4.31951 10.7844 4.21801 10.5394C4.11651 10.2943 4.08996 10.0247 4.14171 9.76458C4.19345 9.50444 4.32116 9.26548 4.50871 9.07794C4.69625 8.89039 4.93521 8.76264 5.19535 8.71089C5.45549 8.65915 5.72512 8.68572 5.97016 8.78722C6.21521 8.88872 6.42464 9.06062 6.572 9.28115C6.71936 9.50168 6.79801 9.76097 6.79801 10.0262C6.79616 10.3813 6.65427 10.7213 6.40318 10.9724C6.15208 11.2235 5.81207 11.3654 5.45697 11.3672ZM11.4881 11.3672C11.2229 11.3672 10.9636 11.2886 10.7431 11.1412C10.5226 10.9939 10.3507 10.7844 10.2492 10.5394C10.1477 10.2943 10.1211 10.0247 10.1729 9.76458C10.2246 9.50444 10.3523 9.26548 10.5399 9.07794C10.7274 8.89039 10.9664 8.76264 11.2265 8.71089C11.4866 8.65915 11.7563 8.68572 12.0013 8.78722C12.2464 8.88872 12.4558 9.06062 12.6032 9.28115C12.7505 9.50168 12.8292 9.76097 12.8292 10.0262C12.8283 10.2044 12.792 10.3807 12.7225 10.5448C12.6531 10.7089 12.5517 10.8577 12.4244 10.9824C12.2971 11.1071 12.1463 11.2053 11.9808 11.2714C11.8152 11.3374 11.6382 11.37 11.46 11.3672H11.4881ZM17.5193 11.3672C17.254 11.3672 16.9948 11.2886 16.7742 11.1412C16.5537 10.9939 16.3818 10.7844 16.2803 10.5394C16.1788 10.2943 16.1523 10.0247 16.204 9.76458C16.2558 9.50444 16.3835 9.26548 16.571 9.07794C16.7586 8.89039 16.9975 8.76264 17.2577 8.71089C17.5178 8.65915 17.7874 8.68572 18.0325 8.78722C18.2775 8.88872 18.4869 9.06062 18.6343 9.28115C18.7817 9.50168 18.8603 9.76097 18.8603 10.0262C18.8594 10.2044 18.8232 10.3807 18.7537 10.5448C18.6842 10.7089 18.5829 10.8577 18.4556 10.9824C18.3282 11.1071 18.1775 11.2053 18.0119 11.2714C17.8464 11.3374 17.6694 11.37 17.4912 11.3672H17.5193Z" fill="#E24E4D"/>
</svg>
