<svg width="24" height="24" viewBox="0 0 24 24" fill="none" xmlns="http://www.w3.org/2000/svg">
<path d="M12 0C9.62662 0 7.30655 0.703812 5.33316 2.02239C3.35977 3.34097 1.8217 5.21509 0.913448 7.4078C0.00519644 9.60051 -0.23244 12.0133 0.230583 14.3411C0.693606 16.6688 1.83649 18.807 3.51472 20.4853C5.19295 22.1635 7.33115 23.3064 9.65892 23.7694C11.9867 24.2324 14.3995 23.9948 16.5922 23.0865C18.7849 22.1783 20.6591 20.6402 21.9776 18.6668C23.2962 16.6935 24 14.3734 24 12C24 8.8174 22.7357 5.76516 20.4853 3.51472C18.2348 1.26428 15.1826 0 12 0ZM16.5035 12.9741H13.1647V16.9906C13.1647 17.2714 13.0532 17.5407 12.8546 17.7393C12.656 17.9379 12.3867 18.0494 12.1059 18.0494C11.8251 18.0494 11.5557 17.9379 11.3572 17.7393C11.1586 17.5407 11.0471 17.2714 11.0471 16.9906V12.9741H7.12235C6.84153 12.9741 6.57222 12.8626 6.37365 12.664C6.17509 12.4654 6.06353 12.1961 6.06353 11.9153C6.06353 11.6345 6.17509 11.3652 6.37365 11.1666C6.57222 10.968 6.84153 10.8565 7.12235 10.8565H11.0471V7.02354C11.0471 6.74272 11.1586 6.4734 11.3572 6.27483C11.5557 6.07626 11.8251 5.96471 12.1059 5.96471C12.3867 5.96471 12.656 6.07626 12.8546 6.27483C13.0532 6.4734 13.1647 6.74272 13.1647 7.02354V10.8565H16.5035C16.7844 10.8565 17.0537 10.968 17.2522 11.1666C17.4508 11.3652 17.5624 11.6345 17.5624 11.9153C17.5624 12.1961 17.4508 12.4654 17.2522 12.664C17.0537 12.8626 16.7844 12.9741 16.5035 12.9741Z" fill="#E24E4D"/>
</svg>
