<svg width="182" height="180" viewBox="0 0 182 180" fill="none" xmlns="http://www.w3.org/2000/svg">
<g clip-path="url(#clip0_2955_4129)">
<path d="M50.1726 108.9L40.2283 139.039C40.0632 139.689 40.15 140.378 40.4712 140.967C40.7693 141.436 41.2027 141.804 41.7141 142.021C42.2254 142.238 42.7906 142.294 43.3348 142.183L72.6124 132.16" stroke="#EF4148" stroke-width="3" stroke-miterlimit="10" stroke-linecap="round"/>
<path d="M139.463 15.5819L165.964 42.0556L179.241 29.3051C180.202 28.5554 180.96 27.5758 181.445 26.4563C181.869 25.3286 182.039 24.1211 181.943 22.9199C181.847 21.7187 181.487 20.5536 180.889 19.5078L161.799 0.81645C160.675 0.21337 159.412 -0.0859861 158.137 -0.0521081C157.146 0.00372256 156.176 0.254982 155.283 0.687245C154.389 1.11951 153.59 1.72425 152.931 2.46671" fill="#EF4148"/>
<path d="M134.778 20.7065L48.1885 107.377L74.5727 133.786L161.162 47.1156L134.778 20.7065Z" fill="#EF4148"/>
<path d="M100.276 6.79213L99.8423 19.5426L16.5392 19.7684C15.4649 20.0519 14.5124 20.6786 13.8264 21.5534C13.1404 22.4281 12.7584 23.5031 12.7384 24.6149L12.3566 162.82C12.6376 164.044 13.2569 165.163 14.1439 166.051C15.0309 166.939 16.1497 167.559 17.3722 167.84H155.95C157.095 167.462 158.114 166.776 158.895 165.857C159.675 164.937 160.188 163.821 160.376 162.629C160.376 136.943 160.434 111.245 160.549 85.5356L172.698 85.7441V163.515C172.563 166.056 171.882 168.539 170.702 170.793C169.393 173.056 167.643 175.032 165.556 176.604C163.469 178.177 161.088 179.314 158.554 179.948H15.3937C12.4806 179.362 9.73884 178.12 7.3758 176.317C3.59788 173.341 0.986817 169.128 0 164.418L0.780975 23.4337C0.897806 20.0037 2.02709 16.6852 4.02632 13.8969C6.45364 10.6135 9.94361 8.27442 13.9012 7.27852L100.276 6.79213Z" fill="#EF4148"/>
<path d="M101.274 19.3923C104.682 18.5606 106.764 15.0907 105.924 11.642C105.084 8.1933 101.64 6.07172 98.2322 6.90334C94.8239 7.73496 92.7419 11.2049 93.5818 14.6536C94.4218 18.1023 97.8656 20.2239 101.274 19.3923Z" fill="#EF4148"/>
<path d="M167.825 92.4139C171.168 91.7792 173.37 88.5827 172.743 85.2742C172.116 81.9658 168.898 79.7983 165.555 80.4329C162.212 81.0676 160.01 84.2642 160.637 87.5726C161.264 90.8811 164.482 93.0486 167.825 92.4139Z" fill="#EF4148"/>
</g>
<defs>
<clipPath id="clip0_2955_4129">
<rect width="182" height="180" fill="white"/>
</clipPath>
</defs>
</svg>
