<svg width="24" height="22" viewBox="0 0 24 22" fill="none" xmlns="http://www.w3.org/2000/svg">
<path d="M21.186 6.15894C20.7427 6.15894 20.38 7.24708 20.38 8.57705V12.5468C20.3782 13.1876 20.1229 13.8017 19.6698 14.2548C19.2167 14.7079 18.6026 14.9632 17.9618 14.965H5.70995C5.06917 14.9632 4.45514 14.7079 4.00204 14.2548C3.54893 13.8017 3.2936 13.1876 3.29183 12.5468V8.57705C3.29183 7.23365 2.96269 6.15894 2.56638 6.15894C2.17008 6.15894 1.83423 7.24708 1.83423 8.57705V19.3243C1.836 19.9651 2.09134 20.5792 2.54444 21.0323C2.99754 21.4854 3.61157 21.7407 4.25236 21.7425H19.5672C20.208 21.7407 20.822 21.4854 21.2751 21.0323C21.7282 20.5792 21.9836 19.9651 21.9854 19.3243V8.57705C21.9854 7.24708 21.6226 6.15894 21.186 6.15894Z" fill="#E24E4D"/>
<path d="M4.78925 8.19265C4.68323 8.83228 4.33716 9.40735 3.82164 9.80054C3.30612 10.1937 2.66 10.3754 2.01511 10.3085C1.50011 10.211 1.02868 9.95433 0.667184 9.57476C0.305692 9.1952 0.0723448 8.7118 0 8.19265L2.97566 1.17334C3.20142 0.878434 3.48194 0.629865 3.80185 0.441201C4.14564 0.242201 4.52397 0.110004 4.91688 0.0516011C13.246 -0.0424375 19.3182 -0.0021451 20.1847 0.125479C20.5964 0.184202 20.988 0.340834 21.3266 0.582233C21.565 0.76417 21.7638 0.992708 21.911 1.25394C22.6006 3.55564 23.2969 5.86407 24 8.17921C23.894 8.81883 23.5479 9.3939 23.0324 9.78709C22.5169 10.1803 21.8707 10.362 21.2259 10.2951C20.7109 10.1975 20.2394 9.94088 19.8779 9.56132C19.5164 9.18175 19.2831 8.69835 19.2107 8.17921" fill="#E24E4D"/>
<path d="M4.78943 8.10522C4.83474 8.7102 5.10705 9.27569 5.55177 9.68835C5.99648 10.101 6.58073 10.3303 7.18741 10.3303C7.79408 10.3303 8.37834 10.101 8.82306 9.68835C9.26777 9.27569 9.54008 8.7102 9.5854 8.10522" fill="#E24E4D"/>
<path d="M9.58496 8.10522C9.61749 8.72014 9.88468 9.29915 10.3315 9.72291C10.7782 10.1467 11.3705 10.3829 11.9863 10.3829C12.6021 10.3829 13.1944 10.1467 13.6412 9.72291C14.0879 9.29915 14.3551 8.72014 14.3876 8.10522" fill="#E24E4D"/>
<path d="M14.3876 8.19287C14.4599 8.71202 14.6933 9.19541 15.0548 9.57498C15.4163 9.95455 15.8877 10.2112 16.4027 10.3088C17.0476 10.3756 17.6937 10.1939 18.2092 9.80075C18.7247 9.40756 19.0708 8.83249 19.1768 8.19287" fill="#E24E4D"/>
</svg>
